<?xml version="1.0" encoding="iso-8859-1"?>
<!-- Generator: Adobe Illustrator 23.0.1, SVG Export Plug-In . SVG Version: 6.00 Build 0)  -->
<svg version="1.1" id="Calque_1" xmlns="http://www.w3.org/2000/svg" xmlns:xlink="http://www.w3.org/1999/xlink" x="0px" y="0px"
	 viewBox="0 0 186 238" style="enable-background:new 0 0 186 238;" xml:space="preserve">
<g>
	<path style="fill:#EC6842;" d="M148.045,95.788c0-30.352-24.693-55.045-55.045-55.045S37.955,65.436,37.955,95.788
		c0,18.624,9.214,35.689,24.72,45.932v12.753l-4.302,6.978l3.334,5.407l-3.334,5.407l3.334,5.407l-3.334,5.409l3.53,5.724v10.057
		L93,227.438l31.098-28.576v-10.056l3.53-5.725l-3.334-5.409l3.334-5.407l-3.334-5.407l3.334-5.407l-4.302-6.978V141.72
		C138.831,131.477,148.045,114.412,148.045,95.788z M42.985,95.788c0-27.578,22.437-50.015,50.015-50.015
		s50.015,22.437,50.015,50.015c0,17.347-8.8,33.208-23.539,42.427l-1.181,0.738v14.575H102.27v-30.391l8.116-6.765
		c3.68-3.064,5.789-7.569,5.789-12.355c0-6.554-5.307-12.093-11.588-12.093c-2.058,0-4.03,0.565-5.801,1.615
		c-0.72-0.417-1.482-0.727-2.258-0.976c-0.723-1.2-2.025-2.01-3.528-2.01s-2.806,0.811-3.529,2.012
		c-0.776,0.249-1.536,0.558-2.255,0.975c-1.773-1.05-3.745-1.615-5.803-1.615c-6.28,0-11.587,5.539-11.587,12.093
		c0,4.786,2.109,9.291,5.789,12.357l8.116,6.762v30.391H67.705v-14.575l-1.181-0.738C51.785,128.995,42.985,113.135,42.985,95.788z
		 M121.718,161.45l-1.783,2.892H66.066l-1.783-2.892l1.783-2.892h53.869L121.718,161.45z M121.718,172.265l-1.783,2.892H66.066
		l-1.783-2.892l1.783-2.892h53.869L121.718,172.265z M121.718,183.08l-1.783,2.892H66.066l-1.783-2.892l1.783-2.893h53.869
		L121.718,183.08z M87.531,120.273l-8.95-7.46c-2.618-2.183-4.12-5.388-4.12-8.795c0-3.975,3.249-7.458,6.952-7.458
		c0.721,0,1.428,0.116,2.104,0.341c-0.046,0.065-0.079,0.139-0.123,0.204c-0.243,0.359-0.463,0.728-0.663,1.11
		c-0.044,0.086-0.098,0.167-0.141,0.255c-0.23,0.466-0.422,0.948-0.586,1.441c-0.042,0.127-0.074,0.259-0.114,0.387
		c-0.114,0.387-0.206,0.781-0.281,1.18c-0.028,0.148-0.055,0.297-0.076,0.447c-0.07,0.524-0.121,1.052-0.121,1.588
		c0,3.483,1.581,6.76,4.339,8.985c0.424,0.343,0.941,0.514,1.455,0.514c0.515,0,1.031-0.171,1.455-0.514
		c2.758-2.225,4.338-5.502,4.338-8.985c0-0.535-0.051-1.064-0.123-1.588c-0.021-0.15-0.049-0.297-0.076-0.447
		c-0.072-0.399-0.165-0.793-0.281-1.18c-0.037-0.13-0.069-0.26-0.111-0.387c-0.144-0.432-0.321-0.851-0.514-1.263
		c0.354,0.099,0.72,0.168,1.105,0.168c0.387,0,0.755-0.07,1.11-0.17c-0.194,0.412-0.372,0.833-0.515,1.264
		c-0.042,0.127-0.074,0.257-0.111,0.387c-0.114,0.387-0.206,0.781-0.281,1.18c-0.028,0.148-0.055,0.297-0.076,0.447
		c-0.077,0.524-0.128,1.052-0.128,1.588c0,3.483,1.581,6.76,4.338,8.985c0.424,0.343,0.941,0.514,1.456,0.514
		c0.514,0,1.031-0.171,1.455-0.514c2.758-2.225,4.338-5.502,4.338-8.985c0-0.535-0.051-1.064-0.123-1.588
		c-0.021-0.15-0.049-0.297-0.077-0.447c-0.072-0.399-0.165-0.793-0.28-1.18c-0.037-0.13-0.07-0.26-0.114-0.387
		c-0.165-0.494-0.357-0.976-0.586-1.441c-0.042-0.088-0.095-0.169-0.141-0.255c-0.2-0.382-0.422-0.751-0.663-1.11
		c-0.044-0.067-0.076-0.139-0.123-0.204c0.679-0.225,1.383-0.341,2.107-0.341c3.703,0,6.952,3.483,6.952,7.458
		c0,3.407-1.501,6.614-4.12,8.795l-8.95,7.46c-0.528,0.441-0.834,1.091-0.834,1.78v31.475h-9.27v-31.475
		C88.365,121.364,88.059,120.713,87.531,120.273z M86.048,103.513c0-0.461,0.064-0.913,0.155-1.358
		c0.023-0.107,0.046-0.216,0.074-0.32c0.111-0.433,0.253-0.86,0.448-1.265c0.016-0.03,0.034-0.06,0.051-0.09
		c0.12-0.239,0.282-0.457,0.431-0.681c0.148,0.225,0.31,0.443,0.431,0.681c0.014,0.03,0.034,0.058,0.051,0.088
		c0.195,0.403,0.336,0.83,0.447,1.265c0.028,0.107,0.051,0.213,0.074,0.32c0.09,0.447,0.155,0.899,0.155,1.36
		c0,0.461-0.065,0.913-0.155,1.358c-0.023,0.107-0.046,0.216-0.074,0.32c-0.111,0.433-0.252,0.86-0.447,1.265
		c-0.014,0.03-0.035,0.06-0.051,0.091c-0.121,0.239-0.283,0.457-0.431,0.681c-0.149-0.225-0.311-0.443-0.431-0.681
		c-0.017-0.03-0.037-0.06-0.051-0.091c-0.195-0.406-0.337-0.832-0.448-1.265c-0.028-0.107-0.051-0.213-0.074-0.32
		C86.112,104.426,86.048,103.974,86.048,103.513z M97.635,103.513c0-0.461,0.065-0.913,0.155-1.358
		c0.023-0.107,0.047-0.216,0.074-0.32c0.111-0.433,0.253-0.86,0.448-1.265c0.016-0.03,0.034-0.06,0.051-0.09
		c0.12-0.239,0.282-0.457,0.431-0.681c0.148,0.225,0.31,0.443,0.431,0.681c0.014,0.03,0.034,0.058,0.051,0.088
		c0.195,0.403,0.336,0.83,0.447,1.265c0.028,0.107,0.051,0.213,0.074,0.32c0.09,0.447,0.155,0.899,0.155,1.36
		c0,0.461-0.065,0.913-0.155,1.358c-0.023,0.107-0.047,0.216-0.074,0.32c-0.111,0.433-0.252,0.86-0.447,1.265
		c-0.014,0.03-0.035,0.06-0.051,0.091c-0.121,0.239-0.283,0.457-0.431,0.681c-0.149-0.225-0.311-0.443-0.431-0.681
		c-0.017-0.03-0.037-0.06-0.052-0.091c-0.194-0.406-0.336-0.832-0.447-1.265c-0.028-0.107-0.051-0.213-0.074-0.32
		C97.7,104.426,97.635,103.974,97.635,103.513z M119.067,196.653l-19.368,17.798l-6.732-3.55l-6.551,3.655l-19.484-17.904v-4.878
		h52.135V196.653z"/>
	<rect x="91.138" y="9.72" style="fill:#EC6842;" width="5.03" height="16.968"/>
	
		<rect x="139.895" y="38.899" transform="matrix(0.7071 -0.7071 0.7071 0.7071 14.1754 117.05)" style="fill:#EC6842;" width="16.969" height="5.03"/>
	<rect x="162.181" y="94.007" style="fill:#EC6842;" width="16.969" height="5.03"/>
	
		<rect x="144.941" y="142.765" transform="matrix(0.7071 -0.7071 0.7071 0.7071 -63.7607 148.573)" style="fill:#EC6842;" width="5.03" height="16.969"/>
	
		<rect x="29.136" y="147.812" transform="matrix(0.707 -0.7072 0.7072 0.707 -95.2851 70.6429)" style="fill:#EC6842;" width="16.97" height="5.03"/>
	<rect x="6.85" y="92.702" style="fill:#EC6842;" width="16.969" height="5.03"/>
	
		<rect x="36.029" y="32.006" transform="matrix(0.7071 -0.7071 0.7071 0.7071 -17.3423 39.1167)" style="fill:#EC6842;" width="5.03" height="16.969"/>
</g>
</svg>
