<?xml version="1.0" encoding="iso-8859-1"?>
<!-- Generator: Adobe Illustrator 23.0.1, SVG Export Plug-In . SVG Version: 6.00 Build 0)  -->
<svg version="1.1" id="Calque_1" xmlns="http://www.w3.org/2000/svg" xmlns:xlink="http://www.w3.org/1999/xlink" x="0px" y="0px"
	 viewBox="0 0 50 16" style="enable-background:new 0 0 50 16;" xml:space="preserve">
<g>
	<path style="fill:#8AC9AD;" d="M30.371,12.232c-0.841,0-1.65,0-2.499,0c0-0.12,0-0.227,0-0.335c0-1.582,0.003-3.165-0.002-4.747
		c-0.001-0.232-0.013-0.467-0.055-0.695c-0.128-0.698-0.533-1.081-1.137-1.1c-0.685-0.022-1.215,0.367-1.375,1.044
		c-0.06,0.253-0.075,0.521-0.077,0.783c-0.007,1.562-0.003,3.124-0.003,4.686c0,0.11,0,0.22,0,0.353c-0.837,0-1.653,0-2.523,0
		c0-0.096,0-0.202,0-0.308c0-1.582,0.004-3.165-0.003-4.747c-0.001-0.272-0.017-0.551-0.08-0.813
		c-0.169-0.696-0.677-1.046-1.39-0.995c-0.605,0.043-1.114,0.55-1.163,1.206c-0.036,0.484-0.028,0.973-0.03,1.459
		c-0.004,0.994-0.012,1.988,0,2.982c0.013,1.085-0.966,1.545-1.67,1.29c-0.522-0.189-0.843-0.655-0.844-1.278
		c-0.003-1.613-0.004-3.225,0.003-4.838c0.001-0.265-0.034-0.459-0.283-0.641c-0.47-0.345-0.512-1.037-0.148-1.497
		c0.373-0.473,1.056-0.585,1.516-0.202c0.237,0.197,0.393,0.179,0.662,0.054c1.522-0.71,3.026-0.758,4.467,0.229
		c0.132,0.09,0.246,0.208,0.385,0.328c0.524-0.532,1.153-0.86,1.882-0.982c1.454-0.243,2.744,0.045,3.749,1.198
		c0.461,0.529,0.633,1.175,0.637,1.86c0.011,1.846,0.005,3.692,0.004,5.538C30.394,12.114,30.381,12.162,30.371,12.232z"/>
	<path style="fill:#8AC9AD;" d="M1.68,11.802c-0.013-0.315,0.186-0.756,0.556-1.123c2.635-2.612,5.275-5.219,7.906-7.835
		c0.534-0.531,1.136-0.807,1.891-0.618c1.37,0.343,1.872,2.023,0.886,3.037c-0.967,0.994-1.981,1.943-2.967,2.92
		c-0.969,0.96-1.924,1.935-2.891,2.896c-0.79,0.784-1.574,1.576-2.391,2.33c-0.554,0.512-1.233,0.557-1.902,0.26
		C2.068,13.361,1.699,12.795,1.68,11.802z"/>
	<path style="fill:#8AC9AD;" d="M39.032,12.352c-0.755,0-1.5,0-2.279,0c0-0.278,0-0.546,0-0.857
		c-0.076,0.042-0.116,0.052-0.137,0.078c-0.957,1.203-3.912,1.012-4.94-0.388c-0.755-1.028-0.729-3.002,1.022-3.614
		c0.709-0.248,1.476-0.329,2.218-0.48c0.327-0.066,0.658-0.112,0.986-0.177c0.262-0.052,0.494-0.168,0.544-0.457
		c0.052-0.304-0.067-0.562-0.314-0.745c-0.39-0.29-0.843-0.3-1.281-0.187c-0.367,0.095-0.722,0.258-1.062,0.431
		c-0.671,0.341-1.45,0.025-1.622-0.68c-0.097-0.397,0.039-0.838,0.425-1.057c1.596-0.907,3.259-1.182,4.95-0.295
		c0.959,0.504,1.47,1.388,1.495,2.457c0.046,1.946,0.014,3.894,0.013,5.841C39.05,12.26,39.04,12.298,39.032,12.352z M36.414,8.475
		c-0.603,0.08-1.183,0.151-1.761,0.235c-0.547,0.079-0.895,0.484-0.868,0.995c0.023,0.457,0.388,0.768,0.943,0.805
		C35.952,10.59,36.686,9.699,36.414,8.475z"/>
	<path style="fill:#8AC9AD;" d="M47.67,3.489c0.412,0,0.775-0.017,1.137,0.004c0.653,0.037,1.161,0.577,1.192,1.24
		c0.029,0.628-0.448,1.218-1.084,1.306c-0.29,0.04-0.586,0.031-0.879,0.042c-0.108,0.004-0.217,0.001-0.356,0.001
		c0,0.782-0.001,1.53,0,2.278c0.001,0.345-0.008,0.69,0.011,1.034c0.033,0.593,0.357,0.876,0.952,0.849
		c0.231-0.011,0.461-0.04,0.741-0.066c0,0.504,0,0.976,0,1.449c0,0.778,0.003,0.818-0.766,0.886
		c-0.549,0.049-1.123,0.047-1.66-0.061c-1.11-0.223-1.819-1.096-1.914-2.3c-0.058-0.736-0.043-1.479-0.059-2.218
		c-0.006-0.274,0.007-0.548-0.011-0.821c-0.05-0.762-0.452-1.132-1.214-1.132c-0.162,0-0.323,0-0.509,0c0-0.773,0-1.526,0-2.297
		c0.304-0.018,0.596-0.02,0.885-0.056c0.597-0.074,1.025-0.486,1.091-1.09c0.052-0.472,0.049-0.95,0.072-1.452
		c0.778,0,1.56,0,2.372,0C47.67,1.866,47.67,2.644,47.67,3.489z"/>
	<path style="fill:#8AC9AD;" d="M43.258,10.192c0,0.73,0,1.436,0,2.139c-1.469,0.304-3.07-0.272-3.331-2.132
		c-0.042-0.3-0.06-0.605-0.061-0.908c-0.005-2.413-0.006-4.826-0.002-7.238c0.002-1.073,1.042-1.703,1.951-1.185
		c0.472,0.269,0.642,0.703,0.642,1.226c-0.001,2.321-0.001,4.643,0.001,6.964c0,0.152-0.006,0.307,0.021,0.455
		C42.558,9.933,42.824,10.162,43.258,10.192z"/>
	<path style="fill:#8AC9AD;" d="M5.804,6.126c-0.874,0.89-1.718,1.751-2.565,2.61c-0.263,0.267-0.543,0.52-0.795,0.796
		c-0.201,0.22-0.418,0.302-0.722,0.278C0.678,9.731,0.002,9.04,0,8.017c-0.002-0.976,0.756-1.855,1.711-1.881
		C3.067,6.098,4.425,6.126,5.804,6.126z"/>
	<path style="fill:#8AC9AD;" d="M9.373,9.871c0.553-0.587,1.099-1.184,1.665-1.761c0.582-0.593,1.176-1.174,1.781-1.743
		c0.11-0.103,0.297-0.177,0.447-0.175c1.027,0.012,1.822,0.834,1.818,1.852c-0.004,1.023-0.796,1.819-1.836,1.825
		C11.942,9.877,10.636,9.871,9.373,9.871z"/>
	<path style="fill:#8AC9AD;" d="M4.524,5.471c-0.557,0-1.114,0.013-1.67-0.008C2.7,5.456,2.515,5.387,2.407,5.283
		C1.857,4.749,1.62,4.105,1.872,3.354c0.247-0.735,0.774-1.171,1.547-1.277C3.961,2.003,4.453,2.16,4.841,2.54
		C5.455,3.141,6.043,3.77,6.641,4.388C6.67,4.417,6.699,4.446,6.72,4.48c0.101,0.157,0.318,0.405,0.278,0.458
		c-0.184,0.244-0.347,0.55-0.744,0.538C5.678,5.459,5.101,5.472,4.524,5.472C4.524,5.472,4.524,5.471,4.524,5.471z"/>
	<path style="fill:#8AC9AD;" d="M8.003,11.159c0.34-0.493,0.729-0.683,1.313-0.637c0.927,0.073,1.864,0.046,2.796,0.031
		c0.338-0.006,0.564,0.1,0.774,0.363c0.882,1.099,0.356,2.674-1.019,2.984c-0.54,0.122-1.08,0.046-1.484-0.339
		C9.571,12.787,8.8,11.969,8.003,11.159z"/>
	<path style="fill:#8AC9AD;" d="M7.595,11.697c0.531,0.521,1.119,1.093,1.698,1.674c0.062,0.062,0.107,0.184,0.096,0.269
		c-0.099,0.756-0.475,1.332-1.176,1.652c-0.686,0.313-1.333,0.183-1.898-0.291c-0.418-0.351-0.601-0.831-0.604-1.374
		c0-0.083,0.028-0.192,0.084-0.246C6.389,12.816,6.992,12.259,7.595,11.697z"/>
	<path style="fill:#8AC9AD;" d="M7.755,4.34C7.128,3.735,6.522,3.155,5.923,2.568C5.876,2.521,5.855,2.421,5.86,2.349
		c0.071-0.874,0.753-1.626,1.607-1.784c0.95-0.176,1.873,0.491,2.058,1.447c0.068,0.351-0.01,0.584-0.266,0.826
		c-0.508,0.478-0.984,0.99-1.474,1.487C7.772,4.339,7.749,4.343,7.755,4.34z"/>
</g>
</svg>
