<?xml version="1.0" encoding="iso-8859-1"?>
<!-- Generator: Adobe Illustrator 23.0.1, SVG Export Plug-In . SVG Version: 6.00 Build 0)  -->
<svg version="1.1" id="Calque_1" xmlns="http://www.w3.org/2000/svg" xmlns:xlink="http://www.w3.org/1999/xlink" x="0px" y="0px"
	 viewBox="0 0 202 210" style="enable-background:new 0 0 202 210;" xml:space="preserve">
<g>
	<path style="fill:#EC6842;" d="M101.5,11.158c-51.513,0-93.421,41.909-93.421,93.421S49.987,198,101.5,198
		s93.421-41.909,93.421-93.421S153.013,11.158,101.5,11.158z M101.5,192.251c-48.343,0-87.672-39.329-87.672-87.672
		s39.33-87.672,87.672-87.672s87.672,39.329,87.672,87.672S149.843,192.251,101.5,192.251z"/>
	<path style="fill:#EC6842;" d="M101.5,28.405c-42.003,0-76.174,34.171-76.174,76.174s34.172,76.174,76.174,76.174
		s76.174-34.171,76.174-76.174S143.503,28.405,101.5,28.405z M53.806,156.338l5.01-5.01l-4.065-4.065l-5.01,5.01
		c-10.971-11.897-17.896-27.567-18.593-44.819h7.113v-5.749h-7.113c0.697-17.252,7.622-32.923,18.593-44.819l5.01,5.01l4.065-4.065
		l-5.01-5.01c11.897-10.971,27.567-17.896,44.82-18.593v7.113h5.749v-7.113c17.253,0.697,32.923,7.622,44.82,18.593l-5.01,5.01
		l4.065,4.065l5.01-5.01c10.971,11.897,17.896,27.567,18.593,44.819h-7.113v5.749h7.113c-0.697,17.252-7.622,32.923-18.593,44.819
		l-5.01-5.01l-4.065,4.065l5.01,5.01c-12.555,11.578-29.31,18.666-47.694,18.666S66.361,167.916,53.806,156.338z"/>
	<rect x="81.379" y="150.571" style="fill:#EC6842;" width="40.243" height="5.749"/>
	<rect x="91.439" y="157.757" style="fill:#EC6842;" width="20.121" height="5.749"/>
	<path style="fill:#EC6842;" d="M101.5,118.951c4.899,0,9.228-2.468,11.824-6.221l38.818,16.063l2.198-5.311l-38.756-16.037
		c0.188-0.926,0.288-1.885,0.288-2.866c0-7.925-6.448-14.372-14.372-14.372s-14.372,6.448-14.372,14.372
		S93.575,118.951,101.5,118.951z M101.5,95.955c4.755,0,8.623,3.868,8.623,8.623s-3.869,8.623-8.623,8.623s-8.623-3.868-8.623-8.623
		S96.745,95.955,101.5,95.955z"/>
</g>
</svg>
