<?xml version="1.0" encoding="iso-8859-1"?>
<!-- Generator: Adobe Illustrator 23.0.1, SVG Export Plug-In . SVG Version: 6.00 Build 0)  -->
<svg version="1.1" id="Calque_1" xmlns="http://www.w3.org/2000/svg" xmlns:xlink="http://www.w3.org/1999/xlink" x="0px" y="0px"
	 viewBox="0 0 300 126" style="enable-background:new 0 0 300 126;" xml:space="preserve">
<g>
	<path style="fill:#EC6842;" d="M27.222,24.697c5.16,6.468,11.008,13.801,22.662,13.801c11.655,0,17.504-7.332,22.664-13.801
		c4.761-5.966,8.872-11.12,17.099-11.12s12.338,5.154,17.098,11.12c5.161,6.468,11.01,13.801,22.665,13.801
		c11.655,0,17.504-7.332,22.664-13.801c4.76-5.966,8.872-11.12,17.098-11.12c8.227,0,12.339,5.154,17.1,11.12
		c5.161,6.468,11.011,13.801,22.666,13.801c11.655,0,17.506-7.332,22.668-13.801c4.761-5.966,8.873-11.12,17.102-11.12
		c8.229,0,12.341,5.154,17.103,11.12c5.161,6.468,11.011,13.801,22.668,13.801v-7.12c-8.229,0-12.341-5.154-17.103-11.12
		c-5.162-6.468-11.011-13.801-22.669-13.801c-11.655,0-17.506,7.332-22.668,13.801c-4.761,5.966-8.873,11.12-17.102,11.12
		c-8.227,0-12.339-5.154-17.1-11.12c-5.161-6.468-11.011-13.801-22.666-13.801c-11.655,0-17.503,7.332-22.664,13.801
		c-4.76,5.966-8.872,11.12-17.098,11.12c-8.227,0-12.339-5.154-17.099-11.12c-5.16-6.468-11.01-13.801-22.664-13.801
		s-17.504,7.332-22.665,13.801c-4.76,5.966-8.872,11.12-17.098,11.12c-8.225,0-12.336-5.154-17.096-11.12
		c-5.16-6.468-11.009-13.801-22.663-13.801v7.12C18.351,13.577,22.462,18.731,27.222,24.697z"/>
	<path style="fill:#EC6842;" d="M27.982,64.799c5.159,6.468,11.008,13.801,22.662,13.801c11.655,0,17.504-7.332,22.665-13.801
		c4.76-5.966,8.872-11.12,17.098-11.12s12.338,5.154,17.098,11.12c5.161,6.468,11.011,13.801,22.665,13.801
		s17.504-7.332,22.664-13.801c4.76-5.966,8.872-11.12,17.099-11.12c8.227,0,12.339,5.154,17.099,11.12
		c5.161,6.468,11.011,13.801,22.665,13.801c11.657,0,17.507-7.332,22.669-13.801c4.761-5.966,8.873-11.12,17.103-11.12
		c8.228,0,12.34,5.154,17.102,11.12c5.162,6.468,11.012,13.801,22.669,13.801v-7.12c-8.229,0-12.341-5.154-17.102-11.12
		c-5.161-6.468-11.011-13.801-22.668-13.801c-11.657,0-17.507,7.332-22.669,13.801c-4.761,5.966-8.873,11.12-17.103,11.12
		c-8.227,0-12.339-5.154-17.099-11.12c-5.161-6.468-11.011-13.801-22.665-13.801c-11.655,0-17.504,7.332-22.665,13.801
		c-4.76,5.966-8.872,11.12-17.098,11.12s-12.339-5.154-17.099-11.12c-5.16-6.468-11.01-13.801-22.664-13.801
		c-11.655,0-17.504,7.332-22.664,13.801c-4.761,5.966-8.872,11.12-17.099,11.12c-8.225,0-12.336-5.154-17.096-11.12
		c-5.16-6.468-11.009-13.801-22.663-13.801v7.12C19.112,53.679,23.222,58.833,27.982,64.799z"/>
	<path style="fill:#EC6842;" d="M272.897,100.46c-5.162-6.468-11.011-13.801-22.669-13.801c-11.655,0-17.506,7.332-22.668,13.801
		c-4.761,5.966-8.873,11.12-17.102,11.12c-8.227,0-12.339-5.154-17.1-11.12c-5.161-6.468-11.011-13.801-22.666-13.801
		c-11.655,0-17.503,7.332-22.664,13.801c-4.76,5.966-8.872,11.12-17.098,11.12s-12.339-5.154-17.098-11.12
		c-5.161-6.468-11.011-13.801-22.665-13.801s-17.504,7.332-22.665,13.801c-4.76,5.966-8.872,11.12-17.098,11.12
		c-8.225,0-12.336-5.154-17.096-11.12C29.149,93.992,23.3,86.66,11.647,86.66v7.12c8.226,0,12.336,5.154,17.096,11.12
		c5.16,6.468,11.008,13.801,22.662,13.801c11.655,0,17.504-7.332,22.664-13.801c4.761-5.966,8.872-11.12,17.099-11.12
		s12.338,5.154,17.099,11.12c5.16,6.468,11.01,13.801,22.664,13.801s17.504-7.332,22.664-13.801
		c4.76-5.966,8.872-11.12,17.098-11.12c8.227,0,12.339,5.154,17.1,11.12c5.161,6.468,11.011,13.801,22.666,13.801
		c11.655,0,17.506-7.332,22.668-13.801c4.761-5.966,8.873-11.12,17.102-11.12c8.229,0,12.341,5.154,17.103,11.12
		c5.161,6.468,11.011,13.801,22.668,13.801v-7.12C281.771,111.58,277.659,106.426,272.897,100.46z"/>
</g>
</svg>
